<svg width="800" height="600" xmlns="http://www.w3.org/2000/svg">

 <g>
  <title>Layer 1</title>
  <ellipse stroke-width="0" ry="45.50004" rx="46.50004" id="svg_3" cy="301.2818" cx="400.50888" stroke="#000" fill="#fff"/>
  <g>
   <path d="m463.3,251.1c0,-7.9 -6.4,-14.3 -14.3,-14.3s-14.4,6.3 -14.4,14.3s6.4,14.3 14.4,14.3s14.3,-6.4 14.3,-14.3" fill="navy"/>
   <g fill="navy">
    <path d="m400,251.1c-27,0 -49,21.9 -49,49s21.9,49 49,49s49,-21.9 49,-49s-22,-49 -49,-49zm-13.3,73.4l-20,0l0,-32.1l4.1,0l0,28.5l15.9,0l0,3.6zm22.3,0l-3.3,0l0,-3.2c-2.2,3 -4.3,4.2 -7.7,4.2c-4.5,0 -7.4,-2.5 -7.4,-6.3l0,-17.8l3.7,0l0,16.3c0,2.8 1.9,4.5 4.8,4.5c3.8,0 6.3,-3.1 6.3,-7.8l0,-13l3.6,0l0,23.1zm-3,-44.8c0,-7.9 6.4,-14.3 14.3,-14.3s14.3,6.4 14.3,14.3s-6.4,14.3 -14.3,14.3s-14.3,-6.4 -14.3,-14.3zm29.8,45.4c-1.2,0.3 -1.8,0.4 -2.5,0.4c-2.4,0 -3.5,-1.1 -3.8,-3.4c-2.6,2.4 -4.9,3.4 -7.8,3.4c-4.7,0 -7.6,-2.6 -7.6,-6.8c0,-3 1.4,-5.1 4.1,-6.2c1.4,-0.6 2.2,-0.7 7.4,-1.4c2.9,-0.4 3.8,-1 3.8,-2.6l0,-1c0,-2.2 -1.9,-3.4 -5.2,-3.4c-3.4,0 -5.1,1.3 -5.4,4.1l-3.7,0c0.1,-2.3 0.5,-3.6 1.6,-4.8c1.5,-1.7 4.3,-2.7 7.7,-2.7c5.7,0 8.7,2.2 8.7,6.3l0,13.6c0,1.1 0.7,1.8 2,1.8c0.2,0 0.4,0 0.8,-0.1l-0.1,2.8z"/>
    <path d="m417.9,318.6c0,2.3 1.7,3.7 4.5,3.7c2.2,0 4,-0.7 5.5,-2.1c1.1,-1 1.5,-1.8 1.5,-3l0,-4.1c-1.2,0.6 -2,0.7 -5.9,1.3c-3.9,0.5 -5.6,1.8 -5.6,4.2z"/>
   </g>
   <path d="m402.3,364l-0.1,-1.5c1.8,-0.1 3.6,-0.2 5.4,-0.4l0.2,1.5c-1.8,0.2 -3.7,0.3 -5.5,0.4zm-5.6,0c-1.9,-0.1 -3.7,-0.3 -5.6,-0.5l0.2,-1.5c1.8,0.2 3.6,0.4 5.4,0.5l0,1.5zm16.6,-1.4l-0.3,-1.4c1.8,-0.4 3.5,-0.8 5.3,-1.4l0.4,1.4c-1.7,0.6 -3.5,1.1 -5.4,1.4zm-27.7,-0.2c-1.8,-0.4 -3.6,-0.9 -5.4,-1.5l0.5,-1.4c1.7,0.6 3.5,1 5.3,1.5l-0.4,1.4zm38.4,-3l-0.6,-1.4c1.7,-0.7 3.3,-1.4 5,-2.3l0.7,1.3c-1.7,0.9 -3.4,1.7 -5.1,2.4zm-49,-0.4c-1.7,-0.7 -3.4,-1.5 -5,-2.4l0.7,-1.3c1.6,0.9 3.3,1.6 4.9,2.4l-0.6,1.3zm59,-4.7l-0.8,-1.2c1.5,-1 3,-2 4.5,-3.1l0.9,1.2c-1.5,1.1 -3.1,2.1 -4.6,3.1zm-68.8,-0.6c-1.6,-1 -3.1,-2.1 -4.5,-3.2l0.9,-1.2c1.4,1.1 2.9,2.2 4.4,3.2l-0.8,1.2zm77.7,-6.1l-1,-1.1c1.3,-1.2 2.7,-2.5 3.9,-3.8l1.1,1c-1.3,1.3 -2.7,2.6 -4,3.9zm-86.5,-0.7c-1.4,-1.3 -2.7,-2.6 -3.9,-4l1.1,-1c1.2,1.3 2.5,2.7 3.8,3.9l-1,1.1zm94.1,-7.5l-1.2,-0.9c1.1,-1.4 2.2,-2.9 3.2,-4.4l1.2,0.8c-1,1.5 -2.1,3.1 -3.2,4.5zm-101.6,-0.8c-1.1,-1.5 -2.2,-3 -3.2,-4.6l1.2,-0.8c1,1.5 2,3 3.1,4.5l-1.1,0.9zm107.7,-8.5l-1.3,-0.7c0.9,-1.6 1.6,-3.3 2.4,-4.9l1.3,0.5l-2.4,5.1zm-113.6,-1c-0.8,-1.7 -1.6,-3.4 -2.3,-5.1l1.3,-0.5c0.7,1.7 1.4,3.3 2.3,5l-1.3,0.6zm117.9,-9.3l-1.4,-0.5c0.6,-1.7 1,-3.5 1.5,-5.3l1.4,0.3c-0.4,1.9 -0.9,3.7 -1.5,5.5zm-122.1,-1c-0.5,-1.8 -1,-3.6 -1.4,-5.4l1.4,-0.3c0.4,1.8 0.8,3.5 1.4,5.3l-1.4,0.4zm124.6,-9.9l-1.5,-0.2c0.2,-1.8 0.4,-3.6 0.5,-5.4l1.5,0.1c0,1.8 -0.2,3.7 -0.5,5.5zm-126.9,-1c-0.3,-1.9 -0.4,-3.7 -0.5,-5.6l1.5,-0.1c0.1,1.8 0.2,3.6 0.4,5.4l-1.4,0.3zm126,-10.1c-0.1,-1.8 -0.2,-3.6 -0.4,-5.4l1.5,-0.2c0.2,1.8 0.4,3.7 0.4,5.6l-1.5,0zm-125,-1l-1.5,-0.1c0.1,-1.9 0.3,-3.7 0.5,-5.6l1.5,0.3c-0.2,1.8 -0.4,3.6 -0.5,5.4zm123.7,-9.8c-0.4,-1.8 -0.8,-3.6 -1.4,-5.3l1.4,-0.4c0.5,1.8 1,3.6 1.4,5.4l-1.4,0.3zm-122.2,-1l-1.4,-0.3c0.4,-1.8 0.9,-3.6 1.5,-5.4l1.4,0.5c-0.6,1.7 -1.1,3.4 -1.5,5.2zm119,-9.4c-0.7,-1.7 -1.4,-3.4 -2.3,-5l1.3,-0.7c0.8,1.7 1.6,3.4 2.3,5.1l-1.3,0.6zm-115.6,-1l-1.4,-0.5c0.7,-1.7 1.5,-3.4 2.4,-5l1.3,0.7c-0.8,1.5 -1.6,3.2 -2.3,4.8zm5.1,-9.6l-1.2,-0.8c1,-1.6 2.1,-3.1 3.2,-4.5l1.2,0.9c-1.2,1.4 -2.2,2.9 -3.2,4.4zm6.7,-8.6l-1.1,-1c1.3,-1.4 2.6,-2.7 4,-3.9l1,1.1c-1.4,1.2 -2.7,2.5 -3.9,3.8zm8.1,-7.3l-0.9,-1.2c1.5,-1.1 3,-2.2 4.6,-3.2l0.8,1.2c-1.6,1.1 -3.1,2.1 -4.5,3.2zm67,-5.4c-1.6,-0.8 -3.3,-1.6 -4.9,-2.3l0.5,-1.4c1.7,0.7 3.4,1.5 5,2.4l-0.6,1.3zm-57.8,-0.4l-0.7,-1.3c1.7,-0.8 3.4,-1.6 5.1,-2.3l0.6,1.3c-1.7,0.7 -3.4,1.5 -5,2.3zm47.7,-3.8c-1.7,-0.6 -3.5,-1 -5.3,-1.4l0.3,-1.4c1.8,0.4 3.6,0.9 5.4,1.5l-0.4,1.3zm-37.6,-0.3l-0.4,-1.4c1.8,-0.5 3.6,-1 5.4,-1.4l0.3,1.4c-1.8,0.4 -3.6,0.9 -5.3,1.4zm27,-2.2c-1.8,-0.2 -3.6,-0.4 -5.4,-0.5l0.1,-1.5c1.9,0.1 3.7,0.3 5.6,0.5l-0.3,1.5zm-16.3,-0.1l-0.2,-1.5c1.8,-0.2 3.7,-0.4 5.6,-0.4l0.1,1.5c-1.9,0 -3.7,0.2 -5.5,0.4z" fill="navy"/>
  </g>
  <ellipse ry="0.5" rx="8.00001" id="svg_4" cy="367.28186" cx="406.00889" stroke="#000" fill="#fff"/>
 </g>
</svg>